<svg width="88.88" height="58.45" viewBox="0 0 88.88 58.45">
<g id="SvgjsG1603" featurekey="HKaMnE-0" transform="matrix(0.9615292934230714,0,0,0.9615292934230714,2.365112108130175,1.400681306931176)" fill="#111111"><g xmlns="http://www.w3.org/2000/svg"><path d="M96.166,25.702c-0.198-0.725-0.902-1.184-1.646-1.09c-0.731,0.098-1.402,0.377-1.976,0.817   c-6.962,3.264-13.649,8.32-20.132,13.221c-2.486,1.879-4.834,3.655-7.126,5.274c-6.719,4.657-13.401,9.551-19.862,14.547   c-1.166,0.773-2.081,1.423-2.64,2.058c-0.062,0.035-0.124,0.07-0.19,0.106c-2.361,0.076-4.844-0.483-6.746-1.864   c2.359-1.615,4.629-3.345,6.841-5.033c2.092-1.596,4.254-3.246,6.445-4.759c6.012-4.154,11.931-8.154,17.591-11.891   c0.894-0.59,1.88-1.291,2.918-2.03c2.58-1.835,5.505-3.916,8.018-4.97c0.764-0.32,1.124-1.2,0.803-1.963   c-0.319-0.764-1.197-1.124-1.963-0.803c-2.82,1.183-5.889,3.366-8.597,5.292c-1.008,0.717-1.964,1.398-2.831,1.971   c-5.679,3.749-11.614,7.761-17.644,11.927c-2.249,1.553-4.44,3.225-6.56,4.842c-2.289,1.746-4.642,3.532-7.064,5.171   c-0.1-0.17-0.218-0.322-0.307-0.503c-0.732-1.508-0.536-3.404-0.327-5.413c0.054-0.52,0.108-1.045,0.147-1.568   c12.754-8.752,25.942-17.456,39.259-25.89c0.699-0.443,0.908-1.37,0.465-2.07c-0.444-0.7-1.371-0.908-2.07-0.464   C58.15,28.737,45.452,37.109,33.137,45.534c-0.085-0.362-0.188-0.72-0.335-1.069c3.208-2.129,6.316-4.415,9.352-6.649   c6.199-4.561,12.609-9.277,19.686-12.482c0.754-0.342,1.089-1.23,0.747-1.985c-0.342-0.755-1.23-1.092-1.985-0.748   c-7.362,3.335-13.902,8.146-20.226,12.799c-4.266,3.138-8.676,6.383-13.247,9.094c-0.709,0.42-0.946,1.333-0.531,2.045   c0.13,0.223,0.312,0.393,0.518,0.519c-0.004,0.003-0.009,0.005-0.013,0.009C21.881,51.395,4.75,77.74,4.022,78.86   c-0.361,0.557-0.314,1.284,0.117,1.79c0.292,0.342,0.712,0.526,1.142,0.526c0.205,0,0.412-0.042,0.607-0.129   c0.583-0.258,6.571-2.914,13.755-6.176c0.423-0.035,0.844-0.086,1.255-0.161c0.526-0.096,0.934-0.457,1.12-0.919   c8.075-3.683,17.031-7.858,21.413-10.203c0.225-0.017,0.45-0.033,0.671-0.059c0.543-0.008,1.082-0.146,1.448-0.239   c0.79-0.202,1.274-0.998,1.089-1.793c-0.015-0.064-0.034-0.128-0.057-0.188c0.165-0.113,0.346-0.235,0.546-0.368   c0.03-0.02,0.06-0.041,0.089-0.063c6.433-4.977,13.087-9.851,19.789-14.496c2.343-1.655,4.71-3.444,7.216-5.339   c6.122-4.629,12.432-9.399,18.857-12.543c0.408-0.007,0.812-0.18,1.102-0.511c0.006-0.006,0.012-0.013,0.017-0.019   c0.369-0.169,0.739-0.333,1.109-0.49C95.998,27.185,96.365,26.425,96.166,25.702z M30.359,47.428   c-0.246,0.169-0.497,0.337-0.743,0.507c-0.029,0.02-0.051,0.045-0.078,0.066c-0.039-0.262-0.142-0.517-0.324-0.736   c-0.102-0.123-0.222-0.219-0.35-0.301c0.449-0.253,0.901-0.502,1.361-0.738C30.313,46.597,30.346,47.005,30.359,47.428z    M28.99,49.4c0.034,0.216,0.11,0.429,0.242,0.621c0.226,0.329,0.561,0.535,0.923,0.612c-0.22,2.146-0.406,4.534,0.645,6.699   c0.179,0.368,0.38,0.711,0.592,1.043c-0.215,0.449-0.206,0.994,0.079,1.447c0.285,0.453,0.772,0.701,1.271,0.701   c0.138,0,0.277-0.02,0.412-0.058c1.358,1.232,2.998,2.075,4.741,2.579c-5.143,2.523-12.501,5.918-18.993,8.868   c-1.076-0.01-1.665-0.429-2.255-1.442c-0.583-1.001-1.039-2.668-0.881-3.18c0.516-0.337,0.756-0.947,0.648-1.528   C21.535,58.361,26.707,51.313,28.99,49.4z"></path></g></g>
</svg>